<svg width="238" height="132" viewBox="0 0 238 132" fill="none" xmlns="http://www.w3.org/2000/svg">
<g clip-path="url(#clip0_2164_41424)">
<path d="M32.6259 118.928C30.4167 118.928 28.6167 117.136 28.7137 114.929C29.2764 102.137 32.5336 89.5907 38.2894 78.1188C44.0452 66.6468 52.1556 56.536 62.0745 48.4378C63.7858 47.0407 66.2982 47.4126 67.6188 49.1836L81.165 67.3498C82.4855 69.1207 82.1106 71.6171 80.4309 73.0521C74.3234 78.2701 69.3086 84.6647 65.6942 91.8686C62.0797 99.0726 59.9513 106.915 59.4191 114.931C59.2728 117.135 57.4957 118.928 55.2866 118.928L32.6259 118.928Z" fill="#1871C9"/>
<path d="M80.1228 41.4133C79.1197 39.445 79.899 37.0276 81.9094 36.112C96.105 29.6468 111.747 26.9298 127.334 28.2549C142.921 29.58 157.88 34.8984 170.781 43.667C172.608 44.9088 172.968 47.4231 171.647 49.1938L158.097 67.3573C156.776 69.1281 154.276 69.4804 152.422 68.2796C144.128 62.909 134.623 59.6459 124.737 58.8055C114.851 57.965 104.931 59.5768 95.8499 63.4704C93.8195 64.3409 91.4151 63.5717 90.4121 61.6034L80.1228 41.4133Z" fill="#1871C9"/>
<path d="M183.082 59.4106C184.693 57.8993 187.232 57.975 188.671 59.6511C201.881 75.0369 209.575 94.4007 210.526 114.657C210.629 116.864 208.835 118.661 206.625 118.668L183.965 118.735C181.756 118.742 179.973 116.954 179.82 114.75C178.954 102.257 174.218 90.3375 166.274 80.6556C164.873 78.9477 164.942 76.4242 166.554 74.9129L183.082 59.4106Z" fill="#1871C9"/>
<mask id="mask0_2164_41424" style="mask-type:alpha" maskUnits="userSpaceOnUse" x="-1" y="-2" width="218" height="192">
<path d="M22.8808 189.591C13.5726 176.875 6.86009 162.45 3.12656 147.141C-0.606972 131.831 -1.28842 115.935 1.12111 100.362C3.53065 84.7885 8.98398 69.8423 17.1698 56.3765C25.3555 42.9107 36.1134 31.1891 48.8292 21.8809C61.545 12.5727 75.9697 5.86016 91.2797 2.12663C106.59 -1.6069 122.485 -2.28835 138.058 0.121185C153.632 2.53072 168.578 7.98406 182.044 16.1698C195.51 24.3556 207.231 35.1135 216.539 47.8293L172.966 79.7257C167.847 72.732 161.4 66.8151 153.994 62.313C146.587 57.8108 138.367 54.8115 129.802 53.4862C121.236 52.161 112.494 52.5358 104.073 54.5892C95.6529 56.6427 87.7193 60.3345 80.7256 65.454C73.7319 70.5735 67.8151 77.0204 63.3129 84.4266C58.8107 91.8328 55.8114 100.053 54.4861 108.619C53.1609 117.184 53.5357 125.926 55.5891 134.347C57.6426 142.767 61.3345 150.701 66.454 157.695L22.8808 189.591Z" fill="#C4C4C4"/>
</mask>
<g mask="url(#mask0_2164_41424)">
<g filter="url(#filter0_b_2164_41424)">
<path d="M12.7097 118.926C12.7097 104.875 15.4774 90.9612 20.8546 77.9793C26.2319 64.9975 34.1134 53.2019 44.0493 43.266C53.9852 33.3302 65.7808 25.4486 78.7626 20.0713C91.7444 14.6941 105.658 11.9265 119.71 11.9265C133.761 11.9265 147.675 14.6941 160.657 20.0713C173.639 25.4486 185.434 33.3302 195.37 43.266C205.306 53.2019 213.188 64.9975 218.565 77.9793C223.942 90.9612 226.71 104.875 226.71 118.926L194.61 118.926C194.61 109.09 192.672 99.3508 188.908 90.2635C185.144 81.1762 179.627 72.9193 172.672 65.9642C165.717 59.009 157.46 53.492 148.373 49.7279C139.285 45.9638 129.546 44.0265 119.71 44.0265C109.874 44.0265 100.134 45.9638 91.0467 49.7279C81.9594 53.492 73.7025 59.009 66.7474 65.9642C59.7923 72.9193 54.2752 81.1762 50.5111 90.2635C46.7471 99.3507 44.8097 109.09 44.8097 118.926H12.7097Z" fill="black" fill-opacity="0.01"/>
</g>
<g style="mix-blend-mode:hard-light">
<path d="M12.7097 118.926C12.7097 104.875 15.4774 90.9612 20.8546 77.9793C26.2319 64.9975 34.1134 53.2019 44.0493 43.266C53.9852 33.3302 65.7808 25.4486 78.7626 20.0713C91.7444 14.6941 105.658 11.9265 119.71 11.9265C133.761 11.9265 147.675 14.6941 160.657 20.0713C173.639 25.4486 185.434 33.3302 195.37 43.266C205.306 53.2019 213.188 64.9975 218.565 77.9793C223.942 90.9612 226.71 104.875 226.71 118.926L194.61 118.926C194.61 109.09 192.672 99.3508 188.908 90.2635C185.144 81.1762 179.627 72.9193 172.672 65.9642C165.717 59.009 157.46 53.492 148.373 49.7279C139.285 45.9638 129.546 44.0265 119.71 44.0265C109.874 44.0265 100.134 45.9638 91.0467 49.7279C81.9594 53.492 73.7025 59.009 66.7474 65.9642C59.7923 72.9193 54.2752 81.1762 50.5111 90.2635C46.7471 99.3507 44.8097 109.09 44.8097 118.926H12.7097Z" fill="#FFD900"/>
</g>
</g>
<mask id="mask1_2164_41424" style="mask-type:alpha" maskUnits="userSpaceOnUse" x="7" y="8" width="225" height="225">
<path d="M210.32 54.878C246.678 104.92 235.585 174.962 185.542 211.32C135.5 247.678 65.4582 236.584 29.1003 186.542C-7.25772 136.499 3.83575 66.458 53.8782 30.1001C103.921 -6.25793 173.962 4.83554 210.32 54.878Z" fill="#FF0000"/>
</mask>
<g mask="url(#mask1_2164_41424)">
<g filter="url(#filter1_d_2164_41424)">
<rect x="164.282" y="83.3823" width="51" height="4" rx="2" transform="rotate(-36 164.282 83.3823)" fill="url(#paint0_linear_2164_41424)"/>
</g>
</g>
</g>
<defs>
<filter id="filter0_b_2164_41424" x="8.70972" y="7.92645" width="222" height="115" filterUnits="userSpaceOnUse" color-interpolation-filters="sRGB">
<feFlood flood-opacity="0" result="BackgroundImageFix"/>
<feGaussianBlur in="BackgroundImage" stdDeviation="2"/>
<feComposite in2="SourceAlpha" operator="in" result="effect1_backgroundBlur_2164_41424"/>
<feBlend mode="normal" in="SourceGraphic" in2="effect1_backgroundBlur_2164_41424" result="shape"/>
</filter>
<filter id="filter1_d_2164_41424" x="163.075" y="52.1987" width="46.0241" height="35.6262" filterUnits="userSpaceOnUse" color-interpolation-filters="sRGB">
<feFlood flood-opacity="0" result="BackgroundImageFix"/>
<feColorMatrix in="SourceAlpha" type="matrix" values="0 0 0 0 0 0 0 0 0 0 0 0 0 0 0 0 0 0 127 0" result="hardAlpha"/>
<feOffset/>
<feGaussianBlur stdDeviation="1"/>
<feComposite in2="hardAlpha" operator="out"/>
<feColorMatrix type="matrix" values="0 0 0 0 0.0941176 0 0 0 0 0.443137 0 0 0 0 0.788235 0 0 0 0.5 0"/>
<feBlend mode="normal" in2="BackgroundImageFix" result="effect1_dropShadow_2164_41424"/>
<feBlend mode="normal" in="SourceGraphic" in2="effect1_dropShadow_2164_41424" result="shape"/>
</filter>
<linearGradient id="paint0_linear_2164_41424" x1="215.282" y1="82.8823" x2="164.282" y2="83.424" gradientUnits="userSpaceOnUse">
<stop stop-color="#C2E3FC"/>
<stop offset="1" stop-color="#9CCEF7"/>
</linearGradient>
<clipPath id="clip0_2164_41424">
<rect width="238" height="132" fill="white"/>
</clipPath>
</defs>
</svg>
