<svg width="60" height="60" viewBox="0 0 60 60" aria-hidden="true" fill="none" xmlns="http://www.w3.org/2000/svg">
<g clip-path="url(#clip0_5863_48708)">
<path fill-rule="evenodd" clip-rule="evenodd" d="M37.2006 27.5511C37.2006 26.7663 36.9357 26.1482 36.406 25.6965C35.8761 25.2453 35.2187 24.8719 34.434 24.5775V30.8485C35.3171 30.6126 35.9985 30.196 36.4795 29.5972C36.9601 28.9984 37.2006 28.3166 37.2006 27.5511ZM28.8125 17.6884C28.8125 18.3953 29.0524 18.9501 29.5335 19.3522C30.0141 19.7543 30.627 20.0932 31.3729 20.3678V14.8624C30.5489 15.039 29.9162 15.3825 29.4747 15.8928C29.0331 16.4032 28.8125 17.0018 28.8125 17.6884ZM40.4382 27.5511C40.4382 28.2973 40.3057 29.0136 40.0408 29.7003C39.7758 30.3873 39.3883 31.0205 38.8784 31.5992C38.3678 32.1782 37.7453 32.669 37.0092 33.0711C36.2735 33.4737 35.4347 33.7432 34.4931 33.8807V37.237H31.3142V33.8807C29.8426 33.6847 28.5868 33.2724 27.547 32.6441C26.5065 32.0165 25.5847 31.2312 24.7803 30.2889L27.5175 27.9924C28.4785 29.504 29.764 30.4464 31.3729 30.8192V23.6059C30.686 23.3906 29.9996 23.1307 29.3129 22.8259C28.6258 22.522 28.0076 22.1444 27.4587 21.6927C26.909 21.2415 26.4625 20.6966 26.1195 20.0586C25.7761 19.4211 25.6046 18.66 25.6046 17.7769C25.6046 17.0511 25.7369 16.3592 26.0017 15.7014C26.2666 15.0443 26.6492 14.4649 27.1494 13.9645C27.6501 13.464 28.2533 13.042 28.9598 12.6985C29.6661 12.3554 30.4507 12.1244 31.3142 12.0068V8.97461H34.4931V12.0658C35.729 12.262 36.7739 12.6249 37.6275 13.155C38.481 13.6849 39.2509 14.3424 39.9378 15.1273L37.3184 17.0998C36.9843 16.5898 36.5775 16.148 36.0972 15.7752C35.6158 15.4023 35.0617 15.1273 34.434 14.9507V21.3392C35.1403 21.5746 35.8514 21.8502 36.5678 22.1632C37.284 22.4775 37.9264 22.875 38.4955 23.356C39.0644 23.8369 39.5305 24.4159 39.8938 25.0931C40.2566 25.7703 40.4382 26.5894 40.4382 27.5511Z" fill="#053361"/>
<path fill-rule="evenodd" clip-rule="evenodd" d="M46.1526 4.36116C45.1411 3.65374 44.0701 3.02543 42.9691 2.49414L41.7078 5.10922C42.6692 5.57277 43.6048 6.12172 44.4885 6.74035C48.84 9.78632 51.7454 14.3449 52.6691 19.5767C53.593 24.8081 52.4248 30.0866 49.3797 34.4391C46.4395 38.6417 41.9687 41.5241 37.0058 42.5313C37.394 42.7907 37.7764 43.0447 37.9385 43.1449C38.7504 43.5295 39.4574 44.0722 40.0372 44.7322C44.728 43.2218 48.8816 40.2145 51.7577 36.1038C58.9613 25.807 56.4471 11.5672 46.1526 4.36116Z" fill="#053361"/>
<path fill-rule="evenodd" clip-rule="evenodd" d="M58.6942 44.5627C58.3991 43.4244 57.6788 42.4699 56.6656 41.8736C55.6524 41.2777 54.4678 41.1117 53.3305 41.4071C51.8875 41.7816 42.1662 44.7952 38.2518 46.0116C38.0244 45.7786 37.7724 45.5701 37.4974 45.3928C37.317 45.2759 37.1302 45.168 36.9317 45.0787C36.759 44.989 35.9685 44.4582 35.2045 43.9455C34.7384 43.6329 34.2174 43.2838 33.6657 42.917C30.844 41.0428 27.125 38.6623 24.7549 37.7795C24.6217 37.7297 24.4853 37.6871 24.3464 37.6511C24.299 37.6385 24.2494 37.6307 24.2013 37.6198C24.1084 37.599 24.0163 37.577 23.921 37.5615C23.862 37.5516 23.8008 37.5468 23.7408 37.5393C23.6537 37.5282 23.5674 37.5156 23.4781 37.5086C23.4135 37.5035 23.3463 37.5025 23.2805 37.4998C23.1937 37.4957 23.1071 37.4907 23.0183 37.4903C22.8831 37.4897 22.746 37.4928 22.6066 37.5003C22.5733 37.5018 22.5394 37.5049 22.5058 37.5071C22.3936 37.5144 22.2799 37.5238 22.1652 37.5357C22.1198 37.5405 22.0745 37.5451 22.0288 37.5507C21.9091 37.5647 21.7877 37.5811 21.6648 37.5998C21.6346 37.6044 21.6051 37.608 21.5746 37.6128C21.4227 37.6373 21.2684 37.6648 21.1119 37.6956C21.071 37.7036 21.0294 37.7128 20.9885 37.7212C20.8676 37.7457 20.7457 37.772 20.6223 37.8003C20.5725 37.8117 20.5227 37.8231 20.4724 37.8347C20.3343 37.8673 20.1947 37.9017 20.0537 37.938C20.0276 37.9448 20.0017 37.9511 19.9753 37.9576C19.808 38.0016 19.6377 38.0478 19.466 38.0962C19.4176 38.11 19.369 38.1243 19.3204 38.1378C19.1895 38.1756 19.0577 38.214 18.9242 38.2537C18.871 38.2697 18.8177 38.2857 18.7638 38.3016C18.6022 38.3505 18.4392 38.4006 18.274 38.4523C18.2573 38.4577 18.2416 38.4623 18.2252 38.4676C18.0394 38.5259 17.851 38.5861 17.6606 38.6476C17.6065 38.6648 17.5516 38.6824 17.4974 38.7003C17.3513 38.7475 17.2045 38.7954 17.0557 38.844C16.9996 38.8624 16.944 38.8806 16.8874 38.8992C16.7009 38.9604 16.513 39.0223 16.3219 39.085C16.1506 39.1419 15.9782 39.1985 15.805 39.2553C15.7547 39.272 15.7046 39.2885 15.6541 39.3052C15.4666 39.3664 15.2789 39.4281 15.0898 39.4893C15.0823 39.4917 15.0753 39.4941 15.068 39.4965C14.8929 39.5532 14.7171 39.6095 14.5403 39.6659C14.4904 39.6816 14.4404 39.6976 14.3903 39.7136C14.2036 39.7726 14.0161 39.8314 13.828 39.8897C13.8176 39.8928 13.8072 39.896 13.7965 39.8994C13.6197 39.9536 13.4417 40.0073 13.2637 40.0605C13.2139 40.0752 13.164 40.0903 13.1142 40.1048C12.9253 40.1607 12.7359 40.2156 12.5458 40.2693C12.5303 40.2736 12.5146 40.278 12.4991 40.2823C12.3228 40.3319 12.1462 40.3801 11.9689 40.4275C11.9191 40.4411 11.8691 40.4544 11.819 40.4674C11.6279 40.5178 11.4366 40.5671 11.2448 40.6145C11.2262 40.6189 11.2075 40.6232 11.1892 40.6278C11.0128 40.6709 10.8363 40.7123 10.6592 40.7527C10.6091 40.764 10.5593 40.7754 10.5093 40.7865C10.3165 40.8291 10.1237 40.8705 9.93046 40.9092C9.90893 40.9138 9.88741 40.9177 9.86588 40.9218C9.69028 40.9566 9.51444 40.9893 9.33836 41.0205C9.28853 41.0294 9.23871 41.0382 9.18864 41.0466C8.9949 41.0798 8.80092 41.111 8.60646 41.1393C8.583 41.1427 8.55978 41.1453 8.53632 41.1487C8.36072 41.1736 8.18536 41.1959 8.00977 41.2165C7.96042 41.222 7.91108 41.2281 7.86174 41.2332C7.66704 41.2544 7.47233 41.2736 7.27762 41.289C7.25247 41.291 7.22756 41.2919 7.2024 41.2939C7.02753 41.3069 6.85217 41.3171 6.67706 41.3248C6.62917 41.3273 6.58128 41.3294 6.53315 41.3314C6.33796 41.3384 6.14301 41.3428 5.9483 41.343C5.94129 41.343 5.93476 41.3435 5.92823 41.3435C5.85809 41.3435 5.78819 41.3415 5.71804 41.3406C5.65032 41.3398 5.58308 41.3396 5.5156 41.3379C5.43651 41.3357 5.35741 41.3319 5.27832 41.3285C5.21181 41.3256 5.14505 41.3236 5.07805 41.32C4.99969 41.3154 4.92132 41.3091 4.84271 41.3033C4.77523 41.2985 4.70799 41.2946 4.64075 41.2888C4.56263 41.282 4.48523 41.2731 4.40759 41.2651C4.33986 41.2581 4.27214 41.252 4.2049 41.244C4.12436 41.2346 4.04406 41.2228 3.96376 41.2116C3.89918 41.2029 3.83484 41.1952 3.77026 41.1853C3.68585 41.1724 3.60168 41.1572 3.51751 41.1424C3.45704 41.132 3.39681 41.1231 3.33634 41.1117C3.24226 41.094 3.14841 41.0737 3.05432 41.0539C3.00426 41.0432 2.95419 41.0343 2.90436 41.0229C2.76045 40.9907 2.61678 40.9559 2.47359 40.9184L1.92164 43.0247C2.08612 43.0675 2.25083 43.1074 2.41554 43.1447C2.46851 43.1565 2.52172 43.1662 2.57469 43.1773C2.6862 43.2011 2.7977 43.2255 2.90944 43.2465C2.98273 43.2601 3.05626 43.2712 3.12954 43.284C3.22146 43.2998 3.31312 43.3169 3.40504 43.331C3.48122 43.3426 3.55741 43.3518 3.63336 43.3622C3.72261 43.3745 3.81186 43.3881 3.90087 43.3987C3.98069 43.4084 4.0605 43.4154 4.14032 43.4239C4.22594 43.4328 4.31132 43.4427 4.39695 43.4502C4.4787 43.4577 4.56021 43.4623 4.64172 43.4684C4.72565 43.4744 4.80958 43.4817 4.89326 43.4865C4.9755 43.4914 5.05774 43.4938 5.13997 43.4974C5.22318 43.5008 5.30638 43.5057 5.38958 43.5081C5.47085 43.5102 5.55212 43.5105 5.63339 43.5117C5.7178 43.5129 5.80173 43.5151 5.8859 43.5151C5.90549 43.5153 5.92484 43.5146 5.94443 43.5146C6.14688 43.5141 6.34933 43.5093 6.55129 43.5025C6.60643 43.5003 6.66134 43.4986 6.71648 43.4962C6.93272 43.487 7.14871 43.4752 7.36421 43.459C7.38114 43.4578 7.39759 43.4558 7.41404 43.4546C7.61745 43.4386 7.82014 43.4193 8.02258 43.398C8.07676 43.3922 8.13094 43.3866 8.18512 43.3803C8.40014 43.3561 8.61444 43.3295 8.8285 43.2993C8.84228 43.2976 8.85607 43.2952 8.8701 43.2932C9.07375 43.2642 9.27644 43.232 9.47865 43.1982C9.5321 43.1892 9.58555 43.1805 9.63876 43.1711C9.85137 43.1343 10.0632 43.0961 10.2744 43.0544C10.285 43.0523 10.2957 43.0498 10.3063 43.0477C10.51 43.0075 10.7127 42.9647 10.9149 42.9207C10.9666 42.9093 11.0184 42.8979 11.0702 42.8863C11.2796 42.8394 11.4883 42.7915 11.6959 42.7411C11.7029 42.7392 11.7097 42.7375 11.7164 42.7358C11.9201 42.6862 12.1223 42.6344 12.324 42.5819L12.4728 42.543C12.6783 42.4888 12.8832 42.4334 13.0864 42.3765C13.0895 42.3758 13.0929 42.3746 13.0963 42.3739C13.298 42.3173 13.4983 42.2592 13.6976 42.2009L13.8442 42.1578C14.0435 42.0988 14.2416 42.0393 14.438 41.979C14.4401 41.9783 14.4421 41.9778 14.4442 41.9771C14.6423 41.9164 14.8383 41.8552 15.0332 41.7935C15.0806 41.7785 15.1278 41.7637 15.1747 41.7485C15.5665 41.6241 15.9521 41.4988 16.3306 41.3747C16.3795 41.3587 16.4283 41.3428 16.4769 41.3268C16.654 41.2687 16.8301 41.2107 17.0037 41.1533C17.1636 41.1003 17.323 41.0481 17.4817 40.9958C17.5286 40.9803 17.5748 40.9653 17.6215 40.9499C17.7419 40.9104 17.8619 40.8712 17.9814 40.8325C18.0358 40.8148 18.0902 40.7972 18.1446 40.7795C18.2607 40.7418 18.3766 40.705 18.4915 40.668C18.5401 40.6525 18.5892 40.6368 18.6378 40.6215C18.7986 40.5705 18.9588 40.5202 19.1169 40.4715C19.1201 40.4706 19.1232 40.4696 19.1264 40.4686C19.2788 40.4219 19.4294 40.3765 19.5787 40.3324C19.6234 40.3194 19.6674 40.3065 19.7115 40.2937C19.821 40.2618 19.9296 40.2308 20.0375 40.2006C20.0871 40.1865 20.1364 40.1728 20.1858 40.1594C20.2934 40.1299 20.3998 40.1016 20.505 40.074C20.5469 40.0632 20.5892 40.0518 20.6306 40.0414C20.7757 40.0044 20.9189 39.9693 21.0592 39.9371C21.0664 39.9354 21.0734 39.934 21.0807 39.9323C21.2113 39.9025 21.3397 39.8752 21.4657 39.85C21.5071 39.8415 21.5477 39.834 21.5886 39.8263C21.6815 39.8086 21.7732 39.7919 21.8634 39.7772C21.9072 39.7697 21.9509 39.7627 21.994 39.7561C22.0847 39.7423 22.1732 39.7305 22.2605 39.7198C22.2966 39.7155 22.3331 39.7102 22.3684 39.7065C22.4886 39.6937 22.6059 39.6833 22.7194 39.6773C22.7317 39.6765 22.7431 39.6768 22.7554 39.6763C22.8393 39.6719 22.9223 39.6688 23.0021 39.6688C23.0173 39.6688 23.0314 39.6703 23.0466 39.6705C23.0817 39.6707 23.1153 39.6724 23.1499 39.6739C23.221 39.6763 23.2907 39.6802 23.3581 39.6865C23.3935 39.6896 23.428 39.6932 23.4624 39.6976C23.5291 39.7058 23.5937 39.7167 23.6568 39.729C23.6854 39.7346 23.7149 39.7392 23.7425 39.7457C23.8305 39.7665 23.9157 39.79 23.995 39.8198C26.4616 40.7386 30.934 43.7038 33.5922 45.4857C33.7288 45.5773 33.8652 45.6688 33.9917 45.754C34.0191 45.7721 34.0437 45.7886 34.0703 45.8065C35.3138 46.6409 35.7661 46.9407 36.0162 47.0539C36.5575 47.2982 36.9711 47.739 37.1808 48.2948C37.3905 48.8505 37.3711 49.4548 37.1266 49.9958C37.0853 50.0875 37.0366 50.1732 36.9849 50.2561C36.9713 50.2777 36.9578 50.2987 36.9438 50.3195C36.8942 50.3933 36.8417 50.4642 36.7846 50.5302C36.779 50.5368 36.774 50.544 36.7684 50.5506C36.7055 50.6217 36.6378 50.6868 36.5674 50.7485C36.549 50.7647 36.5307 50.7794 36.512 50.7949C36.4491 50.8465 36.3841 50.8948 36.3161 50.9389C36.3045 50.9466 36.2934 50.9553 36.2813 50.9628C36.2032 51.0117 36.1216 51.0548 36.038 51.0935C36.0169 51.1034 35.9959 51.1119 35.9746 51.1211C35.903 51.1515 35.8302 51.1789 35.7557 51.2016C35.7385 51.2072 35.7218 51.2132 35.7047 51.2183C35.6164 51.2432 35.5264 51.2623 35.4355 51.2764C35.4139 51.2798 35.3922 51.2817 35.3706 51.2844C35.294 51.2938 35.217 51.2996 35.1392 51.3011C35.1251 51.3013 35.1114 51.304 35.0971 51.304C35.0889 51.304 35.0804 51.3027 35.0722 51.3025C35.0294 51.302 34.9865 51.2991 34.944 51.296C34.9123 51.2938 34.8806 51.2926 34.8487 51.289C34.8037 51.2839 34.7587 51.2754 34.7137 51.2677C34.684 51.2623 34.6545 51.2587 34.6252 51.2522C34.5756 51.2413 34.5265 51.2268 34.4774 51.2123C34.4525 51.205 34.4278 51.1999 34.4032 51.1915C34.3301 51.1673 34.2571 51.1392 34.185 51.1068C32.5632 50.3735 26.33 47.1521 26.2676 47.1194L25.268 49.054C25.5263 49.1877 31.6149 52.3339 33.2884 53.0909C33.8747 53.3561 34.4888 53.4811 35.0939 53.4811C36.7703 53.4811 38.3759 52.5177 39.1102 50.8927C39.5327 49.9578 39.615 48.9279 39.3533 47.9498C43.496 46.6632 52.5471 43.8601 53.8771 43.5146C54.452 43.3658 55.0504 43.4493 55.5622 43.7505C56.074 44.0519 56.438 44.5344 56.5873 45.1094C56.8952 46.2964 56.18 47.5121 54.9936 47.8198C54.7203 47.8907 53.963 48.2234 50.5536 49.7415C45.0293 52.202 34.7459 56.7814 32.1025 57.3942C30.8639 57.6802 26.1902 55.3837 23.3966 54.0115C19.0524 51.8764 17.6321 51.2282 16.6651 51.7919C12.6309 54.1445 1.55956 56.1903 1.4483 56.2107L1.83989 58.3525C2.30283 58.2678 13.0554 56.2806 17.5525 53.7915C18.3255 53.9452 20.686 55.1052 22.4371 55.9658C26.8179 58.1181 29.9675 59.5869 31.9158 59.5869C32.1608 59.5869 32.3864 59.5632 32.5937 59.5155C35.4405 58.8557 45.4554 54.3957 51.4391 51.731C53.3975 50.8586 55.2488 50.034 55.5673 49.9206C57.8994 49.2998 59.3011 46.9027 58.6942 44.5627Z" fill="#053361"/>
<mask id="mask0_5863_48708" style="mask-type:alpha" maskUnits="userSpaceOnUse" x="10" y="0" width="89" height="67">
<path d="M10.3224 0.623047H98.0932V66.2828H10.3224V0.623047Z" fill="white"/>
</mask>
<g mask="url(#mask0_5863_48708)">
<path fill-rule="evenodd" clip-rule="evenodd" d="M39.4205 4.17703C37.3862 3.49235 35.262 3.14541 33.107 3.14541C32.6266 3.14541 32.1407 3.16307 31.663 3.19791L31.4533 0.302187C32.0004 0.26251 32.557 0.242188 33.107 0.242188C35.577 0.242188 38.0126 0.640171 40.3454 1.42501L39.4205 4.17703ZM21.5988 6.7967L19.9224 4.42695C22.4705 2.62332 25.3183 1.38098 28.3874 0.734526L28.9853 3.57557C26.3066 4.13977 23.8216 5.22364 21.5988 6.7967ZM14.8545 15.0939L12.1949 13.9314C12.7986 12.549 13.5469 11.2159 14.4193 9.96872C15.3293 8.66783 16.3729 7.46299 17.5211 6.38662L19.5056 8.50501C18.5038 9.4442 17.5924 10.4966 16.7974 11.6335C16.035 12.7227 15.3813 13.8871 14.8545 15.0939ZM10.5039 26.0642C10.3687 25.0573 10.3003 24.0322 10.3003 23.0178C10.3003 20.9291 10.5867 18.8538 11.1517 16.8494L13.945 17.6371C13.4526 19.3848 13.2027 21.1953 13.2027 23.0178C13.2027 23.9037 13.2625 24.7982 13.3805 25.6776L10.5039 26.0642ZM15.3276 37.3236C13.3694 34.8905 11.9544 32.123 11.1222 29.0983L13.9206 28.3275C14.6469 30.967 15.881 33.3818 17.5883 35.5033L15.3276 37.3236Z" fill="#1871C9"/>
</g>
<mask id="mask1_5863_48708" style="mask-type:alpha" maskUnits="userSpaceOnUse" x="0" y="39" width="110" height="123">
<path d="M0.000183105 39.3418H109.031V161.366H0.000183105V39.3418Z" fill="white"/>
</mask>
<g mask="url(#mask1_5863_48708)">
<path fill-rule="evenodd" clip-rule="evenodd" d="M0.393941 59.6835C0.367577 59.5224 -0.248225 55.6633 0.113614 49.1777C0.479322 42.6276 1.88193 39.1696 1.94143 39.0254L3.95403 39.8552C3.94073 39.8879 2.62979 43.1591 2.28706 49.2992C1.93974 55.5225 2.53595 59.2947 2.54224 59.332L0.393941 59.6835Z" fill="#053361"/>
</g>
</g>
<defs>
<clipPath id="clip0_5863_48708">
<rect width="59.0164" height="60" fill="white"/>
</clipPath>
</defs>
</svg>
