<svg width="60" height="60" viewBox="0 0 60 60" fill="none" aria-hidden="true" xmlns="http://www.w3.org/2000/svg">
<path fill-rule="evenodd" clip-rule="evenodd" d="M59.2612 21.9666L59.2428 21.9019L55.3219 11.8457L56.5512 22.6831L56.6023 22.8139C57.0496 24.3859 57.2442 25.1099 57.1859 25.6215C57.1264 26.1452 56.7201 26.8586 55.9821 28.1537L40.8766 54.6643C40.2259 55.8062 39.1691 56.6248 37.9008 56.9692C36.6327 57.3139 35.3132 57.1403 34.1863 56.481L30.6896 54.4353C29.7552 55.109 28.7153 55.6019 27.6116 55.8951L32.793 58.9262C33.9706 59.6151 35.28 59.9669 36.6094 59.9669C37.2801 59.9669 37.9556 59.8775 38.622 59.6965C40.6093 59.157 42.2671 57.8711 43.29 56.0761L58.3811 29.5904L58.3952 29.5655C60.3017 26.2193 60.3502 25.7935 59.2612 21.9666Z" fill="#13315B"/>
<path fill-rule="evenodd" clip-rule="evenodd" d="M54.7446 23.2951L54.7432 23.2278L53.9139 15.9181L53.4679 11.9857L52.7345 5.51979C52.4566 3.06944 51.9457 2.55085 49.5202 2.25697L31.2929 0.0461443L31.1856 0.0332031L31.0774 0.0369678C30.0603 0.073909 29.4059 0.103791 28.791 0.24285L29.3996 2.99838C29.7591 2.91697 30.2737 2.89179 31.0693 2.86261L49.1889 5.06026C49.3865 5.08426 49.6698 5.11861 49.8813 5.15344C49.9099 5.34544 49.9391 5.60356 49.9661 5.84191L51.9599 23.4163C51.9903 25.052 51.9933 25.8021 51.8066 26.2812C51.615 26.7713 51.0403 27.3539 49.9967 28.4113L28.6345 50.0572C28.4274 50.2671 28.204 50.4497 27.972 50.6137C27.9111 50.6567 27.8505 50.6993 27.7883 50.7391C27.1309 51.1607 26.3967 51.4111 25.6473 51.4847C25.6452 51.4852 25.6431 51.4857 25.6408 51.4859C25.5723 51.4925 25.5033 51.492 25.4346 51.4958C25.4065 51.4972 25.3784 51.4986 25.3501 51.4998C25.2904 51.5019 25.2307 51.5083 25.1713 51.5083C25.1139 51.5083 25.0572 51.5021 25.0001 51.5003C24.9003 51.4965 24.8006 51.4953 24.7013 51.4859C24.4827 51.4645 24.2656 51.4283 24.0513 51.3772C23.4083 51.2233 22.7911 50.9351 22.2396 50.5167C22.0552 50.3767 21.8752 50.2271 21.7076 50.0572L15.4557 43.7221L13.4854 45.7186L19.7375 52.0537C21.1742 53.5094 23.0426 54.2652 24.9291 54.325C25.0096 54.3276 25.0902 54.3306 25.171 54.3306C26.4475 54.3306 27.7228 54.0092 28.8711 53.3706C29.493 53.0247 30.0782 52.5871 30.6046 52.0537L51.9668 30.4078C54.6633 27.6758 54.8191 27.277 54.7446 23.2951Z" fill="#13315B"/>
<path fill-rule="evenodd" clip-rule="evenodd" d="M44.2181 8.85099C43.1423 8.85099 42.267 9.73805 42.267 10.8279C42.267 11.918 43.1423 12.8051 44.2181 12.8051C45.2939 12.8051 46.1692 11.918 46.1692 10.8279C46.1692 9.73805 45.2939 8.85099 44.2181 8.85099ZM44.2181 15.158C41.8618 15.158 39.9449 13.2157 39.9449 10.8279C39.9449 8.4404 41.8618 6.49805 44.2181 6.49805C46.5744 6.49805 48.4913 8.4404 48.4913 10.8279C48.4913 13.2157 46.5744 15.158 44.2181 15.158Z" fill="#13315B"/>
<path fill-rule="evenodd" clip-rule="evenodd" d="M28.4054 21.7272C27.9955 22.1428 27.8128 22.6098 27.8587 23.1289C27.9042 23.6482 28.0635 24.2075 28.3371 24.8075L31.5303 21.5719C30.9497 21.191 30.3834 21.0209 29.8314 21.0613C29.279 21.1018 28.8036 21.3237 28.4054 21.7272ZM27.5515 32.4555C28.0067 31.9943 28.2117 31.4752 28.1664 30.8983C28.1204 30.3213 27.9556 29.7155 27.6711 29.0813L24.0337 32.767C24.6825 33.1475 25.3199 33.3032 25.9462 33.2341C26.572 33.1646 27.1075 32.9053 27.5515 32.4555ZM29.4299 34.3588C28.9973 34.7973 28.5052 35.1404 27.9528 35.3886C27.4006 35.6366 26.8084 35.7806 26.1766 35.8209C25.5447 35.8611 24.8985 35.7837 24.2388 35.5872C23.5783 35.3912 22.9351 35.0564 22.3091 34.5839L20.3622 36.5564L18.5177 34.6877L20.4648 32.7148C19.7245 31.7345 19.2348 30.7538 18.9961 29.7733C18.7567 28.7929 18.6772 27.7893 18.7571 26.7625L21.677 27.0223C21.3579 28.4759 21.5574 29.7851 22.2749 30.9501L26.4587 26.7108C26.1852 26.1799 25.9376 25.6237 25.7159 25.0411C25.4934 24.4583 25.3538 23.8731 25.2972 23.2846C25.2403 22.6964 25.2972 22.1138 25.4681 21.5369C25.6388 20.9602 25.9806 20.4124 26.4929 19.8933C26.9139 19.4668 27.392 19.1378 27.927 18.907C28.462 18.6762 29.0198 18.5609 29.6008 18.5609C30.1813 18.5609 30.776 18.6675 31.3851 18.8809C31.9942 19.0945 32.5833 19.4199 33.1525 19.8588L34.9118 18.0762L36.756 19.9451L34.9631 21.7621C35.5661 22.6042 35.9618 23.4317 36.1497 24.2449C36.3375 25.0583 36.4026 25.8973 36.3459 26.7625L33.6822 26.3818C33.7844 25.8858 33.8043 25.387 33.7419 24.8853C33.6789 24.3835 33.5168 23.8959 33.2551 23.423L29.5495 27.1781C29.8228 27.7317 30.0757 28.3112 30.3093 28.9171C30.5424 29.5223 30.6848 30.1341 30.7363 30.7512C30.7874 31.3684 30.7222 31.9823 30.5399 32.5941C30.3578 33.2051 29.9874 33.7938 29.4299 34.3588Z" fill="#193560"/>
<path fill-rule="evenodd" clip-rule="evenodd" d="M21.9592 10.0659L19.9891 8.06968L25.02 2.9718C25.3525 2.63462 25.64 2.34356 25.8957 2.0918L27.837 4.11768C27.5894 4.36097 27.3119 4.64239 26.9903 4.96827L21.9592 10.0659ZM14.0776 18.052L12.1073 16.0558L18.0185 10.0661L19.9888 12.0624L14.0776 18.052ZM6.19582 26.0384L4.22573 24.0419L10.137 18.0523L12.107 20.0487L6.19582 26.0384ZM3.86812 35.9619L3.59852 35.6885C2.15183 34.2231 1.3551 32.2676 1.3551 30.1829C1.3551 28.9243 1.65698 27.6739 2.22776 26.5664L4.69781 27.8739C4.33417 28.5793 4.14166 29.3777 4.14166 30.1829C4.14166 31.5134 4.64859 32.7598 5.56862 33.6923L5.83822 33.9654L3.86812 35.9619ZM11.7497 43.948L5.83845 37.9584L7.80855 35.9621L13.72 41.9518L11.7497 43.948Z" fill="#1871C9"/>
</svg>
