<svg width="60" height="60" viewBox="0 0 60 60" fill="none" aria-hidden="true" xmlns="http://www.w3.org/2000/svg">
<path d="M46.201 51.0849L45.1207 48.4462C47.6001 47.419 49.8138 45.9491 51.7087 44.0542L53.7276 46.0554C51.567 48.2336 49.0345 49.916 46.201 51.0849ZM55.711 43.7708L53.4442 42.053C55.0558 39.9279 56.2069 37.5194 56.8622 34.9161L59.6248 35.6067C58.8633 38.5996 57.5528 41.3446 55.711 43.7708ZM60.1738 32.6315L57.3403 32.295C57.4289 31.5335 57.482 30.7543 57.482 29.9928C57.482 28.1156 57.2163 26.2384 56.6851 24.4143L59.4123 23.6174C60.0145 25.6894 60.3332 27.8322 60.3332 29.9928C60.3332 30.8783 60.2801 31.7638 60.1738 32.6315ZM55.7642 21.935C54.6662 19.491 53.1254 17.3128 51.1774 15.4887L53.1254 13.4167C55.3568 15.5064 57.1101 17.9857 58.3675 20.7838L55.7642 21.935ZM49.1231 13.8063C46.9448 12.2655 44.5186 11.1676 41.8976 10.5831L42.5174 7.80273C45.5103 8.4757 48.2907 9.71537 50.7701 11.4863L49.1231 13.8063Z" fill="#1871C9"/>
<path d="M33.0075 15.2422H9.68401L8.42664 18.0934H31.7324L33.0075 15.2422Z" fill="#18325A"/>
<path d="M28.6687 24.9629H1.60846L0.333374 27.8141H27.3936L28.6687 24.9629Z" fill="#18325A"/>
<path d="M42.8008 49.2075C39.684 50.0753 36.3546 50.1461 33.1668 49.4377C26.7737 48.0033 21.514 43.5227 19.07 37.5192H23.0724L24.3475 34.668H12.0748L10.7997 37.5192H16.024C18.6096 44.9218 24.8611 50.5003 32.547 52.2181C34.1763 52.59 35.8587 52.7671 37.5234 52.7671C39.56 52.7671 41.5966 52.5015 43.5624 51.9525L42.8008 49.2075Z" fill="#18325A"/>
<path d="M39.7195 10.2114L40.0382 7.37791C33.9993 6.68723 27.8541 8.51132 23.1256 12.372H28.2791C31.7502 10.5479 35.7525 9.7687 39.7195 10.2114Z" fill="#18325A"/>
<path d="M40.2328 37.5739L34.9022 30.437L42.2694 15.2422L44.855 16.3933L38.1608 30.1182L42.5528 35.9269L40.2328 37.5739Z" fill="#18325A"/>
</svg>
